<?xml version="1.0" standalone="no"?>
 <!DOCTYPE svg PUBLIC "-//W3C//DTD SVG 1.1//EN" 
 "http://www.w3.org/Graphics/SVG/1.1/DTD/svg11.dtd"> 
<svg xmlns="http://www.w3.org/2000/svg" version="1.1" 
    width="29.7002cm" height="21.0007cm" viewBox="0 0 116930 82680 ">
<title>SVG Picture created as distortion_01-brd.svg date 2017/05/23 19:27:12 </title>
  <desc>Picture generated by PCBNEW </desc>
<g style="fill:#000000; fill-opacity:1;stroke:#000000; stroke-opacity:1;
stroke-linecap:round; stroke-linejoin:round; "
 transform="translate(0 0) scale(1 1)">
</g>
<g style="fill:#000000; fill-opacity:0.0; 
stroke:#000000; stroke-width:-0.000393701; stroke-opacity:1; 
stroke-linecap:round; stroke-linejoin:round;">
</g>
<g style="fill:#000000; fill-opacity:0.0; 
stroke:#000000; stroke-width:39.3701; stroke-opacity:1; 
stroke-linecap:round; stroke-linejoin:round;">
</g>
<g style="fill:#000000; fill-opacity:0.0; 
stroke:#000000; stroke-width:59.0551; stroke-opacity:1; 
stroke-linecap:round; stroke-linejoin:round;">
<rect x="69685.9" y="65357.2" width="42519.7" height="12598.4" rx="0" />
</g>
<g style="fill:#000000; fill-opacity:0.0; 
stroke:#000000; stroke-width:39.3701; stroke-opacity:1; 
stroke-linecap:round; stroke-linejoin:round;">
</g>
<g style="fill:#000000; fill-opacity:0.0; 
stroke:#000000; stroke-width:59.0551; stroke-opacity:1; 
stroke-linecap:round; stroke-linejoin:round;">
<rect x="3937.01" y="3937.01" width="109056" height="74806" rx="0" />
</g>
<g style="fill:#000000; fill-opacity:0.0; 
stroke:#000000; stroke-width:39.3701; stroke-opacity:1; 
stroke-linecap:round; stroke-linejoin:round;">
</g>
<g style="fill:#000000; fill-opacity:0.0; 
stroke:#000000; stroke-width:59.0551; stroke-opacity:1; 
stroke-linecap:round; stroke-linejoin:round;">
<rect x="4724.41" y="4724.41" width="107481" height="73231.2" rx="0" />
</g>
<g style="fill:#000000; fill-opacity:0.0; 
stroke:#000000; stroke-width:39.3701; stroke-opacity:1; 
stroke-linecap:round; stroke-linejoin:round;">
</g>
<g style="fill:#000000; fill-opacity:0.0; 
stroke:#000000; stroke-width:59.0551; stroke-opacity:1; 
stroke-linecap:round; stroke-linejoin:round;">
<path d="M23622 4724
L23622 3937
" />
</g>
<g style="fill:#000000; fill-opacity:0.0; 
stroke:#000000; stroke-width:39.3701; stroke-opacity:1; 
stroke-linecap:round; stroke-linejoin:round;">
</g>
<g style="fill:#000000; fill-opacity:0.0; 
stroke:#000000; stroke-width:59.0551; stroke-opacity:1; 
stroke-linecap:round; stroke-linejoin:round;">
<path d="M43307 4724
L43307 3937
" />
</g>
<g style="fill:#000000; fill-opacity:0.0; 
stroke:#000000; stroke-width:39.3701; stroke-opacity:1; 
stroke-linecap:round; stroke-linejoin:round;">
</g>
<g style="fill:#000000; fill-opacity:0.0; 
stroke:#000000; stroke-width:59.0551; stroke-opacity:1; 
stroke-linecap:round; stroke-linejoin:round;">
<path d="M62992 4724
L62992 3937
" />
</g>
<g style="fill:#000000; fill-opacity:0.0; 
stroke:#000000; stroke-width:39.3701; stroke-opacity:1; 
stroke-linecap:round; stroke-linejoin:round;">
</g>
<g style="fill:#000000; fill-opacity:0.0; 
stroke:#000000; stroke-width:59.0551; stroke-opacity:1; 
stroke-linecap:round; stroke-linejoin:round;">
<path d="M82677 4724
L82677 3937
" />
</g>
<g style="fill:#000000; fill-opacity:0.0; 
stroke:#000000; stroke-width:39.3701; stroke-opacity:1; 
stroke-linecap:round; stroke-linejoin:round;">
</g>
<g style="fill:#000000; fill-opacity:0.0; 
stroke:#000000; stroke-width:59.0551; stroke-opacity:1; 
stroke-linecap:round; stroke-linejoin:round;">
<path d="M102362 4724
L102362 3937
" />
</g>
<g style="fill:#000000; fill-opacity:0.0; 
stroke:#000000; stroke-width:39.3701; stroke-opacity:1; 
stroke-linecap:round; stroke-linejoin:round;">
</g>
<g style="fill:#000000; fill-opacity:0.0; 
stroke:#000000; stroke-width:59.0551; stroke-opacity:1; 
stroke-linecap:round; stroke-linejoin:round;">
<path d="M14169 4562
L13877 4562
" />
<path d="M14023 4562
L14023 4050
L13974 4123
L13925 4172
L13877 4196
" />
</g>
<g style="fill:#000000; fill-opacity:0.0; 
stroke:#000000; stroke-width:39.3701; stroke-opacity:1; 
stroke-linecap:round; stroke-linejoin:round;">
</g>
<g style="fill:#000000; fill-opacity:0.0; 
stroke:#000000; stroke-width:59.0551; stroke-opacity:1; 
stroke-linecap:round; stroke-linejoin:round;">
<path d="M33562 4099
L33586 4074
L33635 4050
L33757 4050
L33805 4074
L33830 4099
L33854 4147
L33854 4196
L33830 4269
L33537 4562
L33854 4562
" />
</g>
<g style="fill:#000000; fill-opacity:0.0; 
stroke:#000000; stroke-width:39.3701; stroke-opacity:1; 
stroke-linecap:round; stroke-linejoin:round;">
</g>
<g style="fill:#000000; fill-opacity:0.0; 
stroke:#000000; stroke-width:59.0551; stroke-opacity:1; 
stroke-linecap:round; stroke-linejoin:round;">
<path d="M53222 4050
L53539 4050
L53368 4245
L53442 4245
L53490 4269
L53515 4294
L53539 4342
L53539 4464
L53515 4513
L53490 4537
L53442 4562
L53295 4562
L53247 4537
L53222 4513
" />
</g>
<g style="fill:#000000; fill-opacity:0.0; 
stroke:#000000; stroke-width:39.3701; stroke-opacity:1; 
stroke-linecap:round; stroke-linejoin:round;">
</g>
<g style="fill:#000000; fill-opacity:0.0; 
stroke:#000000; stroke-width:59.0551; stroke-opacity:1; 
stroke-linecap:round; stroke-linejoin:round;">
<path d="M73175 4221
L73175 4562
" />
<path d="M73053 4026
L72932 4391
L73248 4391
" />
</g>
<g style="fill:#000000; fill-opacity:0.0; 
stroke:#000000; stroke-width:39.3701; stroke-opacity:1; 
stroke-linecap:round; stroke-linejoin:round;">
</g>
<g style="fill:#000000; fill-opacity:0.0; 
stroke:#000000; stroke-width:59.0551; stroke-opacity:1; 
stroke-linecap:round; stroke-linejoin:round;">
<path d="M92885 4050
L92641 4050
L92617 4294
L92641 4269
L92690 4245
L92812 4245
L92860 4269
L92885 4294
L92909 4342
L92909 4464
L92885 4513
L92860 4537
L92812 4562
L92690 4562
L92641 4537
L92617 4513
" />
</g>
<g style="fill:#000000; fill-opacity:0.0; 
stroke:#000000; stroke-width:39.3701; stroke-opacity:1; 
stroke-linecap:round; stroke-linejoin:round;">
</g>
<g style="fill:#000000; fill-opacity:0.0; 
stroke:#000000; stroke-width:59.0551; stroke-opacity:1; 
stroke-linecap:round; stroke-linejoin:round;">
<path d="M112545 4050
L112448 4050
L112399 4074
L112375 4099
L112326 4172
L112302 4269
L112302 4464
L112326 4513
L112350 4537
L112399 4562
L112497 4562
L112545 4537
L112570 4513
L112594 4464
L112594 4342
L112570 4294
L112545 4269
L112497 4245
L112399 4245
L112350 4269
L112326 4294
L112302 4342
" />
</g>
<g style="fill:#000000; fill-opacity:0.0; 
stroke:#000000; stroke-width:39.3701; stroke-opacity:1; 
stroke-linecap:round; stroke-linejoin:round;">
</g>
<g style="fill:#000000; fill-opacity:0.0; 
stroke:#000000; stroke-width:59.0551; stroke-opacity:1; 
stroke-linecap:round; stroke-linejoin:round;">
<path d="M23622 77955
L23622 78742
" />
</g>
<g style="fill:#000000; fill-opacity:0.0; 
stroke:#000000; stroke-width:39.3701; stroke-opacity:1; 
stroke-linecap:round; stroke-linejoin:round;">
</g>
<g style="fill:#000000; fill-opacity:0.0; 
stroke:#000000; stroke-width:59.0551; stroke-opacity:1; 
stroke-linecap:round; stroke-linejoin:round;">
<path d="M43307 77955
L43307 78742
" />
</g>
<g style="fill:#000000; fill-opacity:0.0; 
stroke:#000000; stroke-width:39.3701; stroke-opacity:1; 
stroke-linecap:round; stroke-linejoin:round;">
</g>
<g style="fill:#000000; fill-opacity:0.0; 
stroke:#000000; stroke-width:59.0551; stroke-opacity:1; 
stroke-linecap:round; stroke-linejoin:round;">
<path d="M62992 77955
L62992 78742
" />
</g>
<g style="fill:#000000; fill-opacity:0.0; 
stroke:#000000; stroke-width:39.3701; stroke-opacity:1; 
stroke-linecap:round; stroke-linejoin:round;">
</g>
<g style="fill:#000000; fill-opacity:0.0; 
stroke:#000000; stroke-width:59.0551; stroke-opacity:1; 
stroke-linecap:round; stroke-linejoin:round;">
<path d="M82677 77955
L82677 78742
" />
</g>
<g style="fill:#000000; fill-opacity:0.0; 
stroke:#000000; stroke-width:39.3701; stroke-opacity:1; 
stroke-linecap:round; stroke-linejoin:round;">
</g>
<g style="fill:#000000; fill-opacity:0.0; 
stroke:#000000; stroke-width:59.0551; stroke-opacity:1; 
stroke-linecap:round; stroke-linejoin:round;">
<path d="M102362 77955
L102362 78742
" />
</g>
<g style="fill:#000000; fill-opacity:0.0; 
stroke:#000000; stroke-width:39.3701; stroke-opacity:1; 
stroke-linecap:round; stroke-linejoin:round;">
</g>
<g style="fill:#000000; fill-opacity:0.0; 
stroke:#000000; stroke-width:59.0551; stroke-opacity:1; 
stroke-linecap:round; stroke-linejoin:round;">
<path d="M14169 78580
L13877 78580
" />
<path d="M14023 78580
L14023 78069
L13974 78142
L13925 78190
L13877 78215
" />
</g>
<g style="fill:#000000; fill-opacity:0.0; 
stroke:#000000; stroke-width:39.3701; stroke-opacity:1; 
stroke-linecap:round; stroke-linejoin:round;">
</g>
<g style="fill:#000000; fill-opacity:0.0; 
stroke:#000000; stroke-width:59.0551; stroke-opacity:1; 
stroke-linecap:round; stroke-linejoin:round;">
<path d="M33562 78117
L33586 78093
L33635 78069
L33757 78069
L33805 78093
L33830 78117
L33854 78166
L33854 78215
L33830 78288
L33537 78580
L33854 78580
" />
</g>
<g style="fill:#000000; fill-opacity:0.0; 
stroke:#000000; stroke-width:39.3701; stroke-opacity:1; 
stroke-linecap:round; stroke-linejoin:round;">
</g>
<g style="fill:#000000; fill-opacity:0.0; 
stroke:#000000; stroke-width:59.0551; stroke-opacity:1; 
stroke-linecap:round; stroke-linejoin:round;">
<path d="M53222 78069
L53539 78069
L53368 78263
L53442 78263
L53490 78288
L53515 78312
L53539 78361
L53539 78483
L53515 78532
L53490 78556
L53442 78580
L53295 78580
L53247 78556
L53222 78532
" />
</g>
<g style="fill:#000000; fill-opacity:0.0; 
stroke:#000000; stroke-width:39.3701; stroke-opacity:1; 
stroke-linecap:round; stroke-linejoin:round;">
</g>
<g style="fill:#000000; fill-opacity:0.0; 
stroke:#000000; stroke-width:59.0551; stroke-opacity:1; 
stroke-linecap:round; stroke-linejoin:round;">
<path d="M73175 78239
L73175 78580
" />
<path d="M73053 78044
L72932 78410
L73248 78410
" />
</g>
<g style="fill:#000000; fill-opacity:0.0; 
stroke:#000000; stroke-width:39.3701; stroke-opacity:1; 
stroke-linecap:round; stroke-linejoin:round;">
</g>
<g style="fill:#000000; fill-opacity:0.0; 
stroke:#000000; stroke-width:59.0551; stroke-opacity:1; 
stroke-linecap:round; stroke-linejoin:round;">
<path d="M92885 78069
L92641 78069
L92617 78312
L92641 78288
L92690 78263
L92812 78263
L92860 78288
L92885 78312
L92909 78361
L92909 78483
L92885 78532
L92860 78556
L92812 78580
L92690 78580
L92641 78556
L92617 78532
" />
</g>
<g style="fill:#000000; fill-opacity:0.0; 
stroke:#000000; stroke-width:39.3701; stroke-opacity:1; 
stroke-linecap:round; stroke-linejoin:round;">
</g>
<g style="fill:#000000; fill-opacity:0.0; 
stroke:#000000; stroke-width:59.0551; stroke-opacity:1; 
stroke-linecap:round; stroke-linejoin:round;">
<path d="M112545 78069
L112448 78069
L112399 78093
L112375 78117
L112326 78190
L112302 78288
L112302 78483
L112326 78532
L112350 78556
L112399 78580
L112497 78580
L112545 78556
L112570 78532
L112594 78483
L112594 78361
L112570 78312
L112545 78288
L112497 78263
L112399 78263
L112350 78288
L112326 78312
L112302 78361
" />
</g>
<g style="fill:#000000; fill-opacity:0.0; 
stroke:#000000; stroke-width:39.3701; stroke-opacity:1; 
stroke-linecap:round; stroke-linejoin:round;">
</g>
<g style="fill:#000000; fill-opacity:0.0; 
stroke:#000000; stroke-width:59.0551; stroke-opacity:1; 
stroke-linecap:round; stroke-linejoin:round;">
<path d="M3937 23622
L4724 23622
" />
</g>
<g style="fill:#000000; fill-opacity:0.0; 
stroke:#000000; stroke-width:39.3701; stroke-opacity:1; 
stroke-linecap:round; stroke-linejoin:round;">
</g>
<g style="fill:#000000; fill-opacity:0.0; 
stroke:#000000; stroke-width:59.0551; stroke-opacity:1; 
stroke-linecap:round; stroke-linejoin:round;">
<path d="M3937 43307
L4724 43307
" />
</g>
<g style="fill:#000000; fill-opacity:0.0; 
stroke:#000000; stroke-width:39.3701; stroke-opacity:1; 
stroke-linecap:round; stroke-linejoin:round;">
</g>
<g style="fill:#000000; fill-opacity:0.0; 
stroke:#000000; stroke-width:59.0551; stroke-opacity:1; 
stroke-linecap:round; stroke-linejoin:round;">
<path d="M3937 62992
L4724 62992
" />
</g>
<g style="fill:#000000; fill-opacity:0.0; 
stroke:#000000; stroke-width:39.3701; stroke-opacity:1; 
stroke-linecap:round; stroke-linejoin:round;">
</g>
<g style="fill:#000000; fill-opacity:0.0; 
stroke:#000000; stroke-width:59.0551; stroke-opacity:1; 
stroke-linecap:round; stroke-linejoin:round;">
<path d="M4208 13864
L4452 13864
" />
<path d="M4160 14011
L4330 13499
L4501 14011
" />
</g>
<g style="fill:#000000; fill-opacity:0.0; 
stroke:#000000; stroke-width:39.3701; stroke-opacity:1; 
stroke-linecap:round; stroke-linejoin:round;">
</g>
<g style="fill:#000000; fill-opacity:0.0; 
stroke:#000000; stroke-width:59.0551; stroke-opacity:1; 
stroke-linecap:round; stroke-linejoin:round;">
<path d="M4367 33428
L4440 33452
L4464 33476
L4489 33525
L4489 33598
L4464 33647
L4440 33671
L4391 33696
L4196 33696
L4196 33184
L4367 33184
L4416 33208
L4440 33233
L4464 33281
L4464 33330
L4440 33379
L4416 33403
L4367 33428
L4196 33428
" />
</g>
<g style="fill:#000000; fill-opacity:0.0; 
stroke:#000000; stroke-width:39.3701; stroke-opacity:1; 
stroke-linecap:round; stroke-linejoin:round;">
</g>
<g style="fill:#000000; fill-opacity:0.0; 
stroke:#000000; stroke-width:59.0551; stroke-opacity:1; 
stroke-linecap:round; stroke-linejoin:round;">
<path d="M4489 53332
L4464 53356
L4391 53381
L4342 53381
L4269 53356
L4221 53308
L4196 53259
L4172 53161
L4172 53088
L4196 52991
L4221 52942
L4269 52893
L4342 52869
L4391 52869
L4464 52893
L4489 52918
" />
</g>
<g style="fill:#000000; fill-opacity:0.0; 
stroke:#000000; stroke-width:39.3701; stroke-opacity:1; 
stroke-linecap:round; stroke-linejoin:round;">
</g>
<g style="fill:#000000; fill-opacity:0.0; 
stroke:#000000; stroke-width:59.0551; stroke-opacity:1; 
stroke-linecap:round; stroke-linejoin:round;">
<path d="M4196 73066
L4196 72554
L4318 72554
L4391 72578
L4440 72627
L4464 72676
L4489 72773
L4489 72846
L4464 72944
L4440 72993
L4391 73041
L4318 73066
L4196 73066
" />
</g>
<g style="fill:#000000; fill-opacity:0.0; 
stroke:#000000; stroke-width:39.3701; stroke-opacity:1; 
stroke-linecap:round; stroke-linejoin:round;">
</g>
<g style="fill:#000000; fill-opacity:0.0; 
stroke:#000000; stroke-width:59.0551; stroke-opacity:1; 
stroke-linecap:round; stroke-linejoin:round;">
<path d="M112992 23622
L112205 23622
" />
</g>
<g style="fill:#000000; fill-opacity:0.0; 
stroke:#000000; stroke-width:39.3701; stroke-opacity:1; 
stroke-linecap:round; stroke-linejoin:round;">
</g>
<g style="fill:#000000; fill-opacity:0.0; 
stroke:#000000; stroke-width:59.0551; stroke-opacity:1; 
stroke-linecap:round; stroke-linejoin:round;">
<path d="M112992 43307
L112205 43307
" />
</g>
<g style="fill:#000000; fill-opacity:0.0; 
stroke:#000000; stroke-width:39.3701; stroke-opacity:1; 
stroke-linecap:round; stroke-linejoin:round;">
</g>
<g style="fill:#000000; fill-opacity:0.0; 
stroke:#000000; stroke-width:59.0551; stroke-opacity:1; 
stroke-linecap:round; stroke-linejoin:round;">
<path d="M112992 62992
L112205 62992
" />
</g>
<g style="fill:#000000; fill-opacity:0.0; 
stroke:#000000; stroke-width:39.3701; stroke-opacity:1; 
stroke-linecap:round; stroke-linejoin:round;">
</g>
<g style="fill:#000000; fill-opacity:0.0; 
stroke:#000000; stroke-width:59.0551; stroke-opacity:1; 
stroke-linecap:round; stroke-linejoin:round;">
<path d="M112477 13864
L112721 13864
" />
<path d="M112428 14011
L112599 13499
L112769 14011
" />
</g>
<g style="fill:#000000; fill-opacity:0.0; 
stroke:#000000; stroke-width:39.3701; stroke-opacity:1; 
stroke-linecap:round; stroke-linejoin:round;">
</g>
<g style="fill:#000000; fill-opacity:0.0; 
stroke:#000000; stroke-width:59.0551; stroke-opacity:1; 
stroke-linecap:round; stroke-linejoin:round;">
<path d="M112635 33428
L112708 33452
L112733 33476
L112757 33525
L112757 33598
L112733 33647
L112708 33671
L112660 33696
L112465 33696
L112465 33184
L112635 33184
L112684 33208
L112708 33233
L112733 33281
L112733 33330
L112708 33379
L112684 33403
L112635 33428
L112465 33428
" />
</g>
<g style="fill:#000000; fill-opacity:0.0; 
stroke:#000000; stroke-width:39.3701; stroke-opacity:1; 
stroke-linecap:round; stroke-linejoin:round;">
</g>
<g style="fill:#000000; fill-opacity:0.0; 
stroke:#000000; stroke-width:59.0551; stroke-opacity:1; 
stroke-linecap:round; stroke-linejoin:round;">
<path d="M112757 53332
L112733 53356
L112660 53381
L112611 53381
L112538 53356
L112489 53308
L112465 53259
L112440 53161
L112440 53088
L112465 52991
L112489 52942
L112538 52893
L112611 52869
L112660 52869
L112733 52893
L112757 52918
" />
</g>
<g style="fill:#000000; fill-opacity:0.0; 
stroke:#000000; stroke-width:39.3701; stroke-opacity:1; 
stroke-linecap:round; stroke-linejoin:round;">
</g>
<g style="fill:#000000; fill-opacity:0.0; 
stroke:#000000; stroke-width:59.0551; stroke-opacity:1; 
stroke-linecap:round; stroke-linejoin:round;">
<path d="M112465 73066
L112465 72554
L112587 72554
L112660 72578
L112708 72627
L112733 72676
L112757 72773
L112757 72846
L112733 72944
L112708 72993
L112660 73041
L112587 73066
L112465 73066
" />
</g>
<g style="fill:#000000; fill-opacity:0.0; 
stroke:#000000; stroke-width:39.3701; stroke-opacity:1; 
stroke-linecap:round; stroke-linejoin:round;">
</g>
<g style="fill:#000000; fill-opacity:0.0; 
stroke:#000000; stroke-width:59.0551; stroke-opacity:1; 
stroke-linecap:round; stroke-linejoin:round;">
<path d="M78881 76293
L78881 75703
L79022 75703
L79106 75731
L79162 75787
L79190 75843
L79219 75956
L79219 76040
L79190 76153
L79162 76209
L79106 76265
L79022 76293
L78881 76293
" />
<path d="M79725 76293
L79725 75984
L79697 75928
L79640 75899
L79528 75899
L79472 75928
" />
<path d="M79725 76265
L79669 76293
L79528 76293
L79472 76265
L79444 76209
L79444 76153
L79472 76096
L79528 76068
L79669 76068
L79725 76040
" />
<path d="M79922 75899
L80147 75899
" />
<path d="M80006 75703
L80006 76209
L80034 76265
L80090 76293
L80147 76293
" />
<path d="M80568 76265
L80512 76293
L80400 76293
L80343 76265
L80315 76209
L80315 75984
L80343 75928
L80400 75899
L80512 75899
L80568 75928
L80597 75984
L80597 76040
L80315 76096
" />
<path d="M80850 76237
L80878 76265
L80850 76293
L80822 76265
L80850 76237
L80850 76293
" />
<path d="M80850 75928
L80878 75956
L80850 75984
L80822 75956
L80850 75928
L80850 75984
" />
</g>
<g style="fill:#000000; fill-opacity:0.0; 
stroke:#000000; stroke-width:39.3701; stroke-opacity:1; 
stroke-linecap:round; stroke-linejoin:round;">
</g>
<g style="fill:#000000; fill-opacity:0.0; 
stroke:#000000; stroke-width:59.0551; stroke-opacity:1; 
stroke-linecap:round; stroke-linejoin:round;">
<path d="M69685 76577
L112205 76577
" />
</g>
<g style="fill:#000000; fill-opacity:0.0; 
stroke:#000000; stroke-width:39.3701; stroke-opacity:1; 
stroke-linecap:round; stroke-linejoin:round;">
</g>
<g style="fill:#000000; fill-opacity:0.0; 
stroke:#000000; stroke-width:59.0551; stroke-opacity:1; 
stroke-linecap:round; stroke-linejoin:round;">
<path d="M70220 77395
L70220 76805
" />
<path d="M70557 77395
L70304 77058
" />
<path d="M70557 76805
L70220 77142
" />
<path d="M70810 77395
L70810 77002
" />
<path d="M70810 76805
L70782 76833
L70810 76861
L70838 76833
L70810 76805
L70810 76861
" />
<path d="M71429 77339
L71401 77367
L71316 77395
L71260 77395
L71176 77367
L71120 77311
L71091 77255
L71063 77142
L71063 77058
L71091 76946
L71120 76889
L71176 76833
L71260 76805
L71316 76805
L71401 76833
L71429 76861
" />
<path d="M71935 77395
L71935 77086
L71907 77030
L71851 77002
L71738 77002
L71682 77030
" />
<path d="M71935 77367
L71879 77395
L71738 77395
L71682 77367
L71654 77311
L71654 77255
L71682 77199
L71738 77171
L71879 77171
L71935 77142
" />
<path d="M72469 77395
L72469 76805
" />
<path d="M72469 77367
L72413 77395
L72301 77395
L72244 77367
L72216 77339
L72188 77283
L72188 77114
L72216 77058
L72244 77030
L72301 77002
L72413 77002
L72469 77030
" />
<path d="M73201 77086
L73397 77086
" />
<path d="M73482 77395
L73201 77395
L73201 76805
L73482 76805
" />
<path d="M73735 77339
L73763 77367
L73735 77395
L73707 77367
L73735 77339
L73735 77395
" />
<path d="M74016 77395
L74016 76805
L74157 76805
L74241 76833
L74297 76889
L74325 76946
L74354 77058
L74354 77142
L74325 77255
L74297 77311
L74241 77367
L74157 77395
L74016 77395
" />
<path d="M74607 77339
L74635 77367
L74607 77395
L74579 77367
L74607 77339
L74607 77395
" />
<path d="M74860 77227
L75141 77227
" />
<path d="M74804 77395
L75000 76805
L75197 77395
" />
<path d="M75394 77339
L75422 77367
L75394 77395
L75366 77367
L75394 77339
L75394 77395
" />
<path d="M76575 77395
L76575 76805
" />
<path d="M76631 77171
L76800 77395
" />
<path d="M76800 77002
L76575 77227
" />
<path d="M77053 77395
L77053 77002
" />
<path d="M77053 76805
L77025 76833
L77053 76861
L77081 76833
L77053 76805
L77053 76861
" />
<path d="M77588 77367
L77531 77395
L77419 77395
L77363 77367
L77334 77339
L77306 77283
L77306 77114
L77334 77058
L77363 77030
L77419 77002
L77531 77002
L77588 77030
" />
<path d="M78094 77395
L78094 77086
L78066 77030
L78009 77002
L77897 77002
L77841 77030
" />
<path d="M78094 77367
L78037 77395
L77897 77395
L77841 77367
L77813 77311
L77813 77255
L77841 77199
L77897 77171
L78037 77171
L78094 77142
" />
<path d="M78628 77395
L78628 76805
" />
<path d="M78628 77367
L78572 77395
L78459 77395
L78403 77367
L78375 77339
L78347 77283
L78347 77114
L78375 77058
L78403 77030
L78459 77002
L78572 77002
L78628 77030
" />
<path d="M79612 77002
L79612 77395
" />
<path d="M79472 76777
L79331 77199
L79697 77199
" />
<path d="M79922 77339
L79950 77367
L79922 77395
L79894 77367
L79922 77339
L79922 77395
" />
<path d="M80315 76805
L80372 76805
L80428 76833
L80456 76861
L80484 76917
L80512 77030
L80512 77171
L80484 77283
L80456 77339
L80428 77367
L80372 77395
L80315 77395
L80259 77367
L80231 77339
L80203 77283
L80175 77171
L80175 77030
L80203 76917
L80231 76861
L80259 76833
L80315 76805
" />
<path d="M80765 77339
L80793 77367
L80765 77395
L80737 77367
L80765 77339
L80765 77395
" />
<path d="M81018 76861
L81046 76833
L81103 76805
L81243 76805
L81300 76833
L81328 76861
L81356 76917
L81356 76974
L81328 77058
L80990 77395
L81356 77395
" />
<path d="M81609 77171
L82059 77171
" />
<path d="M82312 77367
L82368 77395
L82481 77395
L82537 77367
L82565 77311
L82565 77283
L82537 77227
L82481 77199
L82396 77199
L82340 77171
L82312 77114
L82312 77086
L82340 77030
L82396 77002
L82481 77002
L82537 77030
" />
<path d="M82734 77002
L82959 77002
" />
<path d="M82818 76805
L82818 77311
L82846 77367
L82903 77395
L82959 77395
" />
<path d="M83409 77395
L83409 77086
L83381 77030
L83324 77002
L83212 77002
L83156 77030
" />
<path d="M83409 77367
L83352 77395
L83212 77395
L83156 77367
L83127 77311
L83127 77255
L83156 77199
L83212 77171
L83352 77171
L83409 77142
" />
<path d="M83690 77395
L83690 76805
" />
<path d="M83690 77030
L83746 77002
L83859 77002
L83915 77030
L83943 77058
L83971 77114
L83971 77283
L83943 77339
L83915 77367
L83859 77395
L83746 77395
L83690 77367
" />
<path d="M84309 77395
L84252 77367
L84224 77311
L84224 76805
" />
<path d="M84759 77367
L84702 77395
L84590 77395
L84534 77367
L84505 77311
L84505 77086
L84534 77030
L84590 77002
L84702 77002
L84759 77030
L84787 77086
L84787 77142
L84505 77199
" />
</g>
<g style="fill:#000000; fill-opacity:0.0; 
stroke:#000000; stroke-width:39.3701; stroke-opacity:1; 
stroke-linecap:round; stroke-linejoin:round;">
</g>
<g style="fill:#000000; fill-opacity:0.0; 
stroke:#000000; stroke-width:59.0551; stroke-opacity:1; 
stroke-linecap:round; stroke-linejoin:round;">
<path d="M69685 75396
L112205 75396
" />
</g>
<g style="fill:#000000; fill-opacity:0.0; 
stroke:#000000; stroke-width:39.3701; stroke-opacity:1; 
stroke-linecap:round; stroke-linejoin:round;">
</g>
<g style="fill:#000000; fill-opacity:0.0; 
stroke:#000000; stroke-width:118.11; stroke-opacity:1; 
stroke-linecap:round; stroke-linejoin:round;">
<path d="M104022 76293
L103825 76012
" />
<path d="M103684 76293
L103684 75703
L103909 75703
L103965 75731
L103994 75759
L104022 75815
L104022 75899
L103994 75956
L103965 75984
L103909 76012
L103684 76012
" />
<path d="M104500 76265
L104444 76293
L104331 76293
L104275 76265
L104247 76209
L104247 75984
L104275 75928
L104331 75899
L104444 75899
L104500 75928
L104528 75984
L104528 76040
L104247 76096
" />
<path d="M104725 75899
L104865 76293
L105006 75899
" />
<path d="M105231 76237
L105259 76265
L105231 76293
L105203 76265
L105231 76237
L105231 76293
" />
<path d="M105231 75928
L105259 75956
L105231 75984
L105203 75956
L105231 75928
L105231 75984
" />
</g>
<g style="fill:#000000; fill-opacity:0.0; 
stroke:#000000; stroke-width:39.3701; stroke-opacity:1; 
stroke-linecap:round; stroke-linejoin:round;">
</g>
<g style="fill:#000000; fill-opacity:0.0; 
stroke:#000000; stroke-width:59.0551; stroke-opacity:1; 
stroke-linecap:round; stroke-linejoin:round;">
<path d="M70192 76265
L70276 76293
L70417 76293
L70473 76265
L70501 76237
L70529 76181
L70529 76124
L70501 76068
L70473 76040
L70417 76012
L70304 75984
L70248 75956
L70220 75928
L70192 75871
L70192 75815
L70220 75759
L70248 75731
L70304 75703
L70445 75703
L70529 75731
" />
<path d="M70782 76293
L70782 75899
" />
<path d="M70782 75703
L70754 75731
L70782 75759
L70810 75731
L70782 75703
L70782 75759
" />
<path d="M71007 75899
L71316 75899
L71007 76293
L71316 76293
" />
<path d="M71766 76265
L71710 76293
L71598 76293
L71541 76265
L71513 76209
L71513 75984
L71541 75928
L71598 75899
L71710 75899
L71766 75928
L71795 75984
L71795 76040
L71513 76096
" />
<path d="M72048 76237
L72076 76265
L72048 76293
L72019 76265
L72048 76237
L72048 76293
" />
<path d="M72048 75928
L72076 75956
L72048 75984
L72019 75956
L72048 75928
L72048 75984
" />
<path d="M72751 76124
L73032 76124
" />
<path d="M72694 76293
L72891 75703
L73088 76293
" />
<path d="M73538 75899
L73538 76293
" />
<path d="M73397 75674
L73257 76096
L73622 76096
" />
</g>
<g style="fill:#000000; fill-opacity:0.0; 
stroke:#000000; stroke-width:39.3701; stroke-opacity:1; 
stroke-linecap:round; stroke-linejoin:round;">
</g>
<g style="fill:#000000; fill-opacity:0.0; 
stroke:#000000; stroke-width:59.0551; stroke-opacity:1; 
stroke-linecap:round; stroke-linejoin:round;">
<path d="M103684 77395
L103684 76805
" />
<path d="M104219 77395
L104219 76805
" />
<path d="M104219 77367
L104162 77395
L104050 77395
L103994 77367
L103965 77339
L103937 77283
L103937 77114
L103965 77058
L103994 77030
L104050 77002
L104162 77002
L104219 77030
" />
<path d="M104500 77339
L104528 77367
L104500 77395
L104472 77367
L104500 77339
L104500 77395
" />
<path d="M104500 77030
L104528 77058
L104500 77086
L104472 77058
L104500 77030
L104500 77086
" />
<path d="M105540 77395
L105203 77395
" />
<path d="M105372 77395
L105372 76805
L105315 76889
L105259 76946
L105203 76974
" />
<path d="M106215 76777
L105709 77536
" />
<path d="M106721 77395
L106384 77395
" />
<path d="M106553 77395
L106553 76805
L106496 76889
L106440 76946
L106384 76974
" />
</g>
<g style="fill:#000000; fill-opacity:0.0; 
stroke:#000000; stroke-width:39.3701; stroke-opacity:1; 
stroke-linecap:round; stroke-linejoin:round;">
</g>
<g style="fill:#000000; fill-opacity:0.0; 
stroke:#000000; stroke-width:59.0551; stroke-opacity:1; 
stroke-linecap:round; stroke-linejoin:round;">
<path d="M69685 73821
L112205 73821
" />
</g>
<g style="fill:#000000; fill-opacity:0.0; 
stroke:#000000; stroke-width:39.3701; stroke-opacity:1; 
stroke-linecap:round; stroke-linejoin:round;">
</g>
<g style="fill:#000000; fill-opacity:0.0; 
stroke:#000000; stroke-width:157.48; stroke-opacity:1; 
stroke-linecap:round; stroke-linejoin:round;">
<path d="M70257 74099
L70707 74099
" />
<path d="M70384 74886
L70482 74099
" />
<path d="M70871 74886
L70937 74361
" />
<path d="M70970 74099
L70927 74136
L70960 74174
L71002 74136
L70970 74099
L70960 74174
" />
<path d="M71199 74361
L71499 74361
" />
<path d="M71345 74099
L71260 74774
L71288 74849
L71359 74886
L71434 74886
" />
<path d="M71809 74886
L71738 74849
L71710 74774
L71795 74099
" />
<path d="M72413 74849
L72334 74886
L72184 74886
L72113 74849
L72085 74774
L72123 74474
L72169 74399
L72249 74361
L72399 74361
L72469 74399
L72498 74474
L72488 74549
L72104 74624
" />
<path d="M72793 74811
L72826 74849
L72783 74886
L72751 74849
L72793 74811
L72783 74886
" />
<path d="M72844 74399
L72877 74436
L72835 74474
L72802 74436
L72844 74399
L72835 74474
" />
</g>
<g style="fill:#000000; fill-opacity:0.0; 
stroke:#000000; stroke-width:39.3701; stroke-opacity:1; 
stroke-linecap:round; stroke-linejoin:round;">
</g>
<g style="fill:#000000; fill-opacity:0.0; 
stroke:#000000; stroke-width:59.0551; stroke-opacity:1; 
stroke-linecap:round; stroke-linejoin:round;">
<path d="M70417 73070
L70220 73070
" />
<path d="M70220 73380
L70220 72789
L70501 72789
" />
<path d="M70726 73380
L70726 72986
" />
<path d="M70726 72789
L70698 72817
L70726 72845
L70754 72817
L70726 72789
L70726 72845
" />
<path d="M71091 73380
L71035 73352
L71007 73295
L71007 72789
" />
<path d="M71541 73352
L71485 73380
L71373 73380
L71316 73352
L71288 73295
L71288 73070
L71316 73014
L71373 72986
L71485 72986
L71541 73014
L71570 73070
L71570 73127
L71288 73183
" />
<path d="M71823 73323
L71851 73352
L71823 73380
L71795 73352
L71823 73323
L71823 73380
" />
<path d="M71823 73014
L71851 73042
L71823 73070
L71795 73042
L71823 73014
L71823 73070
" />
<path d="M72807 73380
L72807 72789
" />
<path d="M72807 73352
L72751 73380
L72638 73380
L72582 73352
L72554 73323
L72526 73267
L72526 73099
L72554 73042
L72582 73014
L72638 72986
L72751 72986
L72807 73014
" />
<path d="M73088 73380
L73088 72986
" />
<path d="M73088 72789
L73060 72817
L73088 72845
L73116 72817
L73088 72789
L73088 72845
" />
<path d="M73341 73352
L73397 73380
L73510 73380
L73566 73352
L73594 73295
L73594 73267
L73566 73211
L73510 73183
L73426 73183
L73369 73155
L73341 73099
L73341 73070
L73369 73014
L73426 72986
L73510 72986
L73566 73014
" />
<path d="M73763 72986
L73988 72986
" />
<path d="M73847 72789
L73847 73295
L73876 73352
L73932 73380
L73988 73380
" />
<path d="M74269 73380
L74213 73352
L74185 73323
L74157 73267
L74157 73099
L74185 73042
L74213 73014
L74269 72986
L74354 72986
L74410 73014
L74438 73042
L74466 73099
L74466 73267
L74438 73323
L74410 73352
L74354 73380
L74269 73380
" />
<path d="M74719 73380
L74719 72986
" />
<path d="M74719 73099
L74747 73042
L74775 73014
L74832 72986
L74888 72986
" />
<path d="M75000 72986
L75225 72986
" />
<path d="M75085 72789
L75085 73295
L75113 73352
L75169 73380
L75225 73380
" />
<path d="M75422 73380
L75422 72986
" />
<path d="M75422 72789
L75394 72817
L75422 72845
L75450 72817
L75422 72789
L75422 72845
" />
<path d="M75788 73380
L75732 73352
L75703 73323
L75675 73267
L75675 73099
L75703 73042
L75732 73014
L75788 72986
L75872 72986
L75928 73014
L75956 73042
L75985 73099
L75985 73267
L75956 73323
L75928 73352
L75872 73380
L75788 73380
" />
<path d="M76238 72986
L76238 73380
" />
<path d="M76238 73042
L76266 73014
L76322 72986
L76406 72986
L76463 73014
L76491 73070
L76491 73380
" />
<path d="M76631 73436
L77081 73436
" />
<path d="M77334 72789
L77391 72789
L77447 72817
L77475 72845
L77503 72902
L77531 73014
L77531 73155
L77503 73267
L77475 73323
L77447 73352
L77391 73380
L77334 73380
L77278 73352
L77250 73323
L77222 73267
L77194 73155
L77194 73014
L77222 72902
L77250 72845
L77278 72817
L77334 72789
" />
<path d="M78094 73380
L77756 73380
" />
<path d="M77925 73380
L77925 72789
L77869 72874
L77813 72930
L77756 72958
" />
<path d="M78347 73323
L78375 73352
L78347 73380
L78319 73352
L78347 73323
L78347 73380
" />
<path d="M78628 73380
L78628 72789
" />
<path d="M78684 73155
L78853 73380
" />
<path d="M78853 72986
L78628 73211
" />
<path d="M79106 73380
L79106 72986
" />
<path d="M79106 72789
L79078 72817
L79106 72845
L79134 72817
L79106 72789
L79106 72845
" />
<path d="M79640 73352
L79584 73380
L79472 73380
L79415 73352
L79387 73323
L79359 73267
L79359 73099
L79387 73042
L79415 73014
L79472 72986
L79584 72986
L79640 73014
" />
<path d="M80147 73380
L80147 73070
L80118 73014
L80062 72986
L79950 72986
L79894 73014
" />
<path d="M80147 73352
L80090 73380
L79950 73380
L79894 73352
L79865 73295
L79865 73239
L79894 73183
L79950 73155
L80090 73155
L80147 73127
" />
<path d="M80681 73380
L80681 72789
" />
<path d="M80681 73352
L80625 73380
L80512 73380
L80456 73352
L80428 73323
L80400 73267
L80400 73099
L80428 73042
L80456 73014
L80512 72986
L80625 72986
L80681 73014
" />
<path d="M80822 73436
L81271 73436
" />
<path d="M81412 72986
L81412 73577
" />
<path d="M81412 73014
L81468 72986
L81581 72986
L81637 73014
L81665 73042
L81693 73099
L81693 73267
L81665 73323
L81637 73352
L81581 73380
L81468 73380
L81412 73352
" />
<path d="M82199 73352
L82143 73380
L82031 73380
L81974 73352
L81946 73323
L81918 73267
L81918 73099
L81946 73042
L81974 73014
L82031 72986
L82143 72986
L82199 73014
" />
<path d="M82453 73380
L82453 72789
" />
<path d="M82453 73014
L82509 72986
L82621 72986
L82678 73014
L82706 73042
L82734 73099
L82734 73267
L82706 73323
L82678 73352
L82621 73380
L82509 73380
L82453 73352
" />
</g>
<g style="fill:#000000; fill-opacity:0.0; 
stroke:#000000; stroke-width:39.3701; stroke-opacity:1; 
stroke-linecap:round; stroke-linejoin:round;">
</g>
<g style="fill:#000000; fill-opacity:0.0; 
stroke:#000000; stroke-width:59.0551; stroke-opacity:1; 
stroke-linecap:round; stroke-linejoin:round;">
<path d="M69685 71459
L112205 71459
" />
</g>
<g style="fill:#000000; fill-opacity:0.0; 
stroke:#000000; stroke-width:39.3701; stroke-opacity:1; 
stroke-linecap:round; stroke-linejoin:round;">
</g>
<g style="fill:#000000; fill-opacity:0.0; 
stroke:#000000; stroke-width:59.0551; stroke-opacity:1; 
stroke-linecap:round; stroke-linejoin:round;">
<path d="M70192 72289
L70276 72317
L70417 72317
L70473 72289
L70501 72260
L70529 72204
L70529 72148
L70501 72092
L70473 72064
L70417 72036
L70304 72007
L70248 71979
L70220 71951
L70192 71895
L70192 71839
L70220 71782
L70248 71754
L70304 71726
L70445 71726
L70529 71754
" />
<path d="M70782 72317
L70782 71726
" />
<path d="M71035 72317
L71035 72007
L71007 71951
L70951 71923
L70867 71923
L70810 71951
L70782 71979
" />
<path d="M71541 72289
L71485 72317
L71373 72317
L71316 72289
L71288 72232
L71288 72007
L71316 71951
L71373 71923
L71485 71923
L71541 71951
L71570 72007
L71570 72064
L71288 72120
" />
<path d="M72048 72289
L71991 72317
L71879 72317
L71823 72289
L71795 72232
L71795 72007
L71823 71951
L71879 71923
L71991 71923
L72048 71951
L72076 72007
L72076 72064
L71795 72120
" />
<path d="M72244 71923
L72469 71923
" />
<path d="M72329 71726
L72329 72232
L72357 72289
L72413 72317
L72469 72317
" />
<path d="M72666 72260
L72694 72289
L72666 72317
L72638 72289
L72666 72260
L72666 72317
" />
<path d="M72666 71951
L72694 71979
L72666 72007
L72638 71979
L72666 71951
L72666 72007
" />
</g>
<g style="fill:#000000; fill-opacity:0.0; 
stroke:#000000; stroke-width:39.3701; stroke-opacity:1; 
stroke-linecap:round; stroke-linejoin:round;">
</g>
<g style="fill:#000000; fill-opacity:0.0; 
stroke:#000000; stroke-width:59.0551; stroke-opacity:1; 
stroke-linecap:round; stroke-linejoin:round;">
<path d="M77559 75396
L77559 76577
" />
</g>
<g style="fill:#000000; fill-opacity:0.0; 
stroke:#000000; stroke-width:39.3701; stroke-opacity:1; 
stroke-linecap:round; stroke-linejoin:round;">
</g>
<g style="fill:#000000; fill-opacity:0.0; 
stroke:#000000; stroke-width:59.0551; stroke-opacity:1; 
stroke-linecap:round; stroke-linejoin:round;">
<path d="M102756 75396
L102756 77955
" />
</g>
<g style="fill:#000000; fill-opacity:0.0; 
stroke:#000000; stroke-width:78.7402; stroke-opacity:1; 
stroke-linecap:round; stroke-linejoin:round;">
<path d="M85827 45374
L96949 45374
" />
<path d="M85827 45374
L74213 45374
" />
<path d="M92422 24409
L79528 24409
" />
<path d="M83170 17125
L83170 26771
" />
<path d="M89075 17125
L89075 26771
" />
<path d="M86024 25984
L86024 27263
" />
<path d="M86516 26574
L85433 26574
" />
<path d="M82185 35728
L77658 35728
" />
<path d="M79331 33956
L79331 37500
" />
<path d="M82087 28937
L77461 28937
" />
<path d="M79331 27165
L79331 30708
" />
<path d="M89961 35728
L94292 35728
" />
<path d="M92717 33956
L92717 37500
" />
<path d="M89961 28937
L94784 28937
" />
<path d="M92717 30708
L92618 30708
" />
<path d="M92717 27165
L92717 30708
" />
</g>
<g style="fill:#000000; fill-opacity:0.0; 
stroke:#000000; stroke-width:118.11; stroke-opacity:1; 
stroke-linecap:round; stroke-linejoin:round;">
<path d="M92607 44825
L92607 45163
" />
<path d="M92607 44994
L93198 44994
L93113 45050
L93057 45106
L93029 45163
" />
<path d="M93142 44600
L93170 44572
L93198 44516
L93198 44375
L93170 44319
L93142 44291
L93085 44263
L93029 44263
L92945 44291
L92607 44628
L92607 44263
" />
<path d="M92663 44010
L92635 43982
L92607 44010
L92635 44038
L92663 44010
L92607 44010
" />
<path d="M93198 43616
L93198 43560
L93170 43503
L93142 43475
L93085 43447
L92973 43419
L92832 43419
L92720 43447
L92663 43475
L92635 43503
L92607 43560
L92607 43616
L92635 43672
L92663 43700
L92720 43728
L92832 43757
L92973 43757
L93085 43728
L93142 43700
L93170 43672
L93198 43616
" />
<path d="M93198 43053
L93198 42997
L93170 42941
L93142 42913
L93085 42885
L92973 42857
L92832 42857
L92720 42885
L92663 42913
L92635 42941
L92607 42997
L92607 43053
L92635 43110
L92663 43138
L92720 43166
L92832 43194
L92973 43194
L93085 43166
L93142 43138
L93170 43110
L93198 43053
" />
<path d="M93198 42491
L93198 42435
L93170 42379
L93142 42350
L93085 42322
L92973 42294
L92832 42294
L92720 42322
L92663 42350
L92635 42379
L92607 42435
L92607 42491
L92635 42547
L92663 42575
L92720 42604
L92832 42632
L92973 42632
L93085 42604
L93142 42575
L93170 42547
L93198 42491
" />
<path d="M92607 41591
L93001 41591
" />
<path d="M92945 41591
L92973 41563
L93001 41507
L93001 41422
L92973 41366
L92917 41338
L92607 41338
" />
<path d="M92917 41338
L92973 41310
L93001 41254
L93001 41169
L92973 41113
L92917 41085
L92607 41085
" />
<path d="M92607 40804
L93001 40804
" />
<path d="M92945 40804
L92973 40776
L93001 40719
L93001 40635
L92973 40579
L92917 40551
L92607 40551
" />
<path d="M92917 40551
L92973 40523
L93001 40466
L93001 40382
L92973 40326
L92917 40298
L92607 40298
" />
<path d="M93406 45078
L93406 40354
" />
<path d="M95473 45078
L92343 45078
" />
<path d="M95473 40354
L92343 40354
" />
<path d="M93406 40354
L93175 40797
" />
<path d="M93406 40354
L93637 40797
" />
<path d="M93406 45078
L93175 44635
" />
<path d="M93406 45078
L93637 44635
" />
<path d="M100338 49026
L100675 49026
" />
<path d="M100507 49026
L100507 48436
L100563 48520
L100619 48577
L100675 48605
" />
<path d="M99832 48633
L99832 49026
" />
<path d="M99972 48408
L100113 48830
L99747 48830
" />
<path d="M99522 48970
L99494 48998
L99522 49026
L99550 48998
L99522 48970
L99522 49026
" />
<path d="M99129 48436
L99072 48436
L99016 48464
L98988 48492
L98960 48548
L98932 48661
L98932 48802
L98960 48914
L98988 48970
L99016 48998
L99072 49026
L99129 49026
L99185 48998
L99213 48970
L99241 48914
L99269 48802
L99269 48661
L99241 48548
L99213 48492
L99185 48464
L99129 48436
" />
<path d="M98566 48436
L98510 48436
L98454 48464
L98426 48492
L98397 48548
L98369 48661
L98369 48802
L98397 48914
L98426 48970
L98454 48998
L98510 49026
L98566 49026
L98622 48998
L98651 48970
L98679 48914
L98707 48802
L98707 48661
L98679 48548
L98651 48492
L98622 48464
L98566 48436
" />
<path d="M98004 48436
L97947 48436
L97891 48464
L97863 48492
L97835 48548
L97807 48661
L97807 48802
L97835 48914
L97863 48970
L97891 48998
L97947 49026
L98004 49026
L98060 48998
L98088 48970
L98116 48914
L98144 48802
L98144 48661
L98116 48548
L98088 48492
L98060 48464
L98004 48436
" />
<path d="M97104 49026
L97104 48633
" />
<path d="M97104 48689
L97076 48661
L97019 48633
L96935 48633
L96879 48661
L96851 48717
L96851 49026
" />
<path d="M96851 48717
L96823 48661
L96766 48633
L96682 48633
L96626 48661
L96598 48717
L96598 49026
" />
<path d="M96316 49026
L96316 48633
" />
<path d="M96316 48689
L96288 48661
L96232 48633
L96148 48633
L96091 48661
L96063 48717
L96063 49026
" />
<path d="M96063 48717
L96035 48661
L95979 48633
L95895 48633
L95838 48661
L95810 48717
L95810 49026
" />
<path d="M100985 48228
L95473 48228
" />
<path d="M100985 45078
L100985 49291
" />
<path d="M95473 45078
L95473 49291
" />
<path d="M95473 48228
L95916 48459
" />
<path d="M95473 48228
L95916 47997
" />
<path d="M100985 48228
L100541 48459
" />
<path d="M100985 48228
L100541 47997
" />
<path d="M105678 26799
L105650 26743
L105622 26715
L105566 26687
L105537 26687
L105481 26715
L105453 26743
L105425 26799
L105425 26912
L105453 26968
L105481 26996
L105537 27024
L105566 27024
L105622 26996
L105650 26968
L105678 26912
L105678 26799
L105706 26743
L105734 26715
L105791 26687
L105903 26687
L105959 26715
L105987 26743
L106016 26799
L106016 26912
L105987 26968
L105959 26996
L105903 27024
L105791 27024
L105734 26996
L105706 26968
L105678 26912
" />
<path d="M106016 27587
L106016 27249
" />
<path d="M106016 27418
L105425 27418
L105509 27362
L105566 27305
L105594 27249
" />
<path d="M105959 27840
L105987 27868
L106016 27840
L105987 27812
L105959 27840
L106016 27840
" />
<path d="M105425 28233
L105425 28290
L105453 28346
L105481 28374
L105537 28402
L105650 28430
L105791 28430
L105903 28402
L105959 28374
L105987 28346
L106016 28290
L106016 28233
L105987 28177
L105959 28149
L105903 28121
L105791 28093
L105650 28093
L105537 28121
L105481 28149
L105453 28177
L105425 28233
" />
<path d="M105425 28796
L105425 28852
L105453 28908
L105481 28937
L105537 28965
L105650 28993
L105791 28993
L105903 28965
L105959 28937
L105987 28908
L106016 28852
L106016 28796
L105987 28740
L105959 28712
L105903 28683
L105791 28655
L105650 28655
L105537 28683
L105481 28712
L105453 28740
L105425 28796
" />
<path d="M105425 29358
L105425 29415
L105453 29471
L105481 29499
L105537 29527
L105650 29555
L105791 29555
L105903 29527
L105959 29499
L105987 29471
L106016 29415
L106016 29358
L105987 29302
L105959 29274
L105903 29246
L105791 29218
L105650 29218
L105537 29246
L105481 29274
L105453 29302
L105425 29358
" />
<path d="M106016 30258
L105622 30258
" />
<path d="M105678 30258
L105650 30286
L105622 30343
L105622 30427
L105650 30483
L105706 30511
L106016 30511
" />
<path d="M105706 30511
L105650 30539
L105622 30596
L105622 30680
L105650 30736
L105706 30764
L106016 30764
" />
<path d="M106016 31046
L105622 31046
" />
<path d="M105678 31046
L105650 31074
L105622 31130
L105622 31214
L105650 31271
L105706 31299
L106016 31299
" />
<path d="M105706 31299
L105650 31327
L105622 31383
L105622 31467
L105650 31524
L105706 31552
L106016 31552
" />
<path d="M105217 13188
L105217 45078
" />
<path d="M100985 13188
L106280 13188
" />
<path d="M100985 45078
L106280 45078
" />
<path d="M105217 45078
L105448 44635
" />
<path d="M105217 45078
L104986 44635
" />
<path d="M105217 13188
L105448 13632
" />
<path d="M105217 13188
L104986 13632
" />
<path d="M84590 49420
L84927 49420
" />
<path d="M84759 49420
L84759 48830
L84815 48914
L84871 48970
L84927 48998
" />
<path d="M84084 49026
L84084 49420
" />
<path d="M84224 48802
L84365 49223
L83999 49223
" />
<path d="M83774 49364
L83746 49392
L83774 49420
L83802 49392
L83774 49364
L83774 49420
" />
<path d="M83381 48830
L83324 48830
L83268 48858
L83240 48886
L83212 48942
L83184 49055
L83184 49195
L83212 49308
L83240 49364
L83268 49392
L83324 49420
L83381 49420
L83437 49392
L83465 49364
L83493 49308
L83521 49195
L83521 49055
L83493 48942
L83465 48886
L83437 48858
L83381 48830
" />
<path d="M82818 48830
L82762 48830
L82706 48858
L82678 48886
L82649 48942
L82621 49055
L82621 49195
L82649 49308
L82678 49364
L82706 49392
L82762 49420
L82818 49420
L82874 49392
L82903 49364
L82931 49308
L82959 49195
L82959 49055
L82931 48942
L82903 48886
L82874 48858
L82818 48830
" />
<path d="M82256 48830
L82199 48830
L82143 48858
L82115 48886
L82087 48942
L82059 49055
L82059 49195
L82087 49308
L82115 49364
L82143 49392
L82199 49420
L82256 49420
L82312 49392
L82340 49364
L82368 49308
L82396 49195
L82396 49055
L82368 48942
L82340 48886
L82312 48858
L82256 48830
" />
<path d="M81356 49420
L81356 49026
" />
<path d="M81356 49083
L81328 49055
L81271 49026
L81187 49026
L81131 49055
L81103 49111
L81103 49420
" />
<path d="M81103 49111
L81075 49055
L81018 49026
L80934 49026
L80878 49055
L80850 49111
L80850 49420
" />
<path d="M80568 49420
L80568 49026
" />
<path d="M80568 49083
L80540 49055
L80484 49026
L80400 49026
L80343 49055
L80315 49111
L80315 49420
" />
<path d="M80315 49111
L80287 49055
L80231 49026
L80147 49026
L80090 49055
L80062 49111
L80062 49420
" />
<path d="M79725 48622
L85237 48622
" />
<path d="M79725 45078
L79725 49685
" />
<path d="M85237 45078
L85237 49685
" />
<path d="M85237 48622
L84793 48391
" />
<path d="M85237 48622
L84793 48852
" />
<path d="M79725 48622
L80168 48391
" />
<path d="M79725 48622
L80168 48852
" />
</g>
<g style="fill:#000000; fill-opacity:0.0; 
stroke:#000000; stroke-width:39.3701; stroke-opacity:1; 
stroke-linecap:round; stroke-linejoin:round;">
<path d="M77895 12935
L77895 12748
L78082 12729
L78064 12748
L78045 12785
L78045 12879
L78064 12917
L78082 12935
L78120 12954
L78214 12954
L78251 12935
L78270 12917
L78289 12879
L78289 12785
L78270 12748
L78251 12729
" />
<path d="M78251 13123
L78270 13142
L78289 13123
L78270 13104
L78251 13123
L78289 13123
" />
<path d="M77895 13385
L77895 13423
L77914 13460
L77932 13479
L77970 13498
L78045 13517
L78139 13517
L78214 13498
L78251 13479
L78270 13460
L78289 13423
L78289 13385
L78270 13348
L78251 13329
L78214 13310
L78139 13292
L78045 13292
L77970 13310
L77932 13329
L77914 13348
L77895 13385
" />
<path d="M77895 13760
L77895 13798
L77914 13835
L77932 13854
L77970 13873
L78045 13892
L78139 13892
L78214 13873
L78251 13854
L78270 13835
L78289 13798
L78289 13760
L78270 13723
L78251 13704
L78214 13685
L78139 13667
L78045 13667
L77970 13685
L77932 13704
L77914 13723
L77895 13760
" />
<path d="M77895 14135
L77895 14173
L77914 14210
L77932 14229
L77970 14248
L78045 14266
L78139 14266
L78214 14248
L78251 14229
L78270 14210
L78289 14173
L78289 14135
L78270 14098
L78251 14079
L78214 14060
L78139 14041
L78045 14041
L77970 14060
L77932 14079
L77914 14098
L77895 14135
" />
<path d="M78289 14735
L78026 14735
" />
<path d="M78064 14735
L78045 14754
L78026 14791
L78026 14848
L78045 14885
L78082 14904
L78289 14904
" />
<path d="M78082 14904
L78045 14923
L78026 14960
L78026 15016
L78045 15054
L78082 15073
L78289 15073
" />
<path d="M78289 15260
L78026 15260
" />
<path d="M78064 15260
L78045 15279
L78026 15316
L78026 15373
L78045 15410
L78082 15429
L78289 15429
" />
<path d="M78082 15429
L78045 15448
L78026 15485
L78026 15541
L78045 15579
L78082 15598
L78289 15598
" />
<path d="M78642 13188
L78642 15157
" />
<path d="M79725 13188
L77579 13188
" />
<path d="M79725 15157
L77579 15157
" />
<path d="M78642 15157
L78873 14713
" />
<path d="M78642 15157
L78411 14713
" />
<path d="M78642 13188
L78873 13632
" />
<path d="M78642 13188
L78411 13632
" />
<path d="M81946 11457
L82134 11457
L82153 11645
L82134 11626
L82096 11607
L82003 11607
L81965 11626
L81946 11645
L81928 11682
L81928 11776
L81946 11813
L81965 11832
L82003 11851
L82096 11851
L82134 11832
L82153 11813
" />
<path d="M81759 11813
L81740 11832
L81759 11851
L81778 11832
L81759 11813
L81759 11851
" />
<path d="M81496 11457
L81459 11457
L81421 11476
L81403 11495
L81384 11532
L81365 11607
L81365 11701
L81384 11776
L81403 11813
L81421 11832
L81459 11851
L81496 11851
L81534 11832
L81553 11813
L81571 11776
L81590 11701
L81590 11607
L81571 11532
L81553 11495
L81534 11476
L81496 11457
" />
<path d="M81121 11457
L81084 11457
L81046 11476
L81028 11495
L81009 11532
L80990 11607
L80990 11701
L81009 11776
L81028 11813
L81046 11832
L81084 11851
L81121 11851
L81159 11832
L81178 11813
L81196 11776
L81215 11701
L81215 11607
L81196 11532
L81178 11495
L81159 11476
L81121 11457
" />
<path d="M80747 11457
L80709 11457
L80672 11476
L80653 11495
L80634 11532
L80615 11607
L80615 11701
L80634 11776
L80653 11813
L80672 11832
L80709 11851
L80747 11851
L80784 11832
L80803 11813
L80822 11776
L80840 11701
L80840 11607
L80822 11532
L80803 11495
L80784 11476
L80747 11457
" />
<path d="M80147 11851
L80147 11588
" />
<path d="M80147 11626
L80128 11607
L80090 11588
L80034 11588
L79997 11607
L79978 11645
L79978 11851
" />
<path d="M79978 11645
L79959 11607
L79922 11588
L79865 11588
L79828 11607
L79809 11645
L79809 11851
" />
<path d="M79622 11851
L79622 11588
" />
<path d="M79622 11626
L79603 11607
L79565 11588
L79509 11588
L79472 11607
L79453 11645
L79453 11851
" />
<path d="M79453 11645
L79434 11607
L79397 11588
L79340 11588
L79303 11607
L79284 11645
L79284 11851
" />
<path d="M79725 12204
L81693 12204
" />
<path d="M79725 13188
L79725 11141
" />
<path d="M81693 13188
L81693 11141
" />
<path d="M81693 12204
L81250 11973
" />
<path d="M81693 12204
L81250 12435
" />
<path d="M79725 12204
L80168 11973
" />
<path d="M79725 12204
L80168 12435
" />
<path d="M102875 12935
L102875 12748
L103063 12729
L103044 12748
L103025 12785
L103025 12879
L103044 12917
L103063 12935
L103100 12954
L103194 12954
L103232 12935
L103250 12917
L103269 12879
L103269 12785
L103250 12748
L103232 12729
" />
<path d="M103232 13123
L103250 13142
L103269 13123
L103250 13104
L103232 13123
L103269 13123
" />
<path d="M102875 13385
L102875 13423
L102894 13460
L102913 13479
L102950 13498
L103025 13517
L103119 13517
L103194 13498
L103232 13479
L103250 13460
L103269 13423
L103269 13385
L103250 13348
L103232 13329
L103194 13310
L103119 13292
L103025 13292
L102950 13310
L102913 13329
L102894 13348
L102875 13385
" />
<path d="M102875 13760
L102875 13798
L102894 13835
L102913 13854
L102950 13873
L103025 13892
L103119 13892
L103194 13873
L103232 13854
L103250 13835
L103269 13798
L103269 13760
L103250 13723
L103232 13704
L103194 13685
L103119 13667
L103025 13667
L102950 13685
L102913 13704
L102894 13723
L102875 13760
" />
<path d="M102875 14135
L102875 14173
L102894 14210
L102913 14229
L102950 14248
L103025 14266
L103119 14266
L103194 14248
L103232 14229
L103250 14210
L103269 14173
L103269 14135
L103250 14098
L103232 14079
L103194 14060
L103119 14041
L103025 14041
L102950 14060
L102913 14079
L102894 14098
L102875 14135
" />
<path d="M103269 14735
L103007 14735
" />
<path d="M103044 14735
L103025 14754
L103007 14791
L103007 14848
L103025 14885
L103063 14904
L103269 14904
" />
<path d="M103063 14904
L103025 14923
L103007 14960
L103007 15016
L103025 15054
L103063 15073
L103269 15073
" />
<path d="M103269 15260
L103007 15260
" />
<path d="M103044 15260
L103025 15279
L103007 15316
L103007 15373
L103025 15410
L103063 15429
L103269 15429
" />
<path d="M103063 15429
L103025 15448
L103007 15485
L103007 15541
L103025 15579
L103063 15598
L103269 15598
" />
<path d="M102559 13188
L102559 15157
" />
<path d="M100985 13188
L103622 13188
" />
<path d="M100985 15157
L103622 15157
" />
<path d="M102559 15157
L102790 14713
" />
<path d="M102559 15157
L102329 14713
" />
<path d="M102559 13188
L102790 13632
" />
<path d="M102559 13188
L102329 13632
" />
<path d="M101238 10571
L101425 10571
L101444 10759
L101425 10740
L101388 10721
L101294 10721
L101256 10740
L101238 10759
L101219 10796
L101219 10890
L101238 10928
L101256 10946
L101294 10965
L101388 10965
L101425 10946
L101444 10928
" />
<path d="M101050 10928
L101031 10946
L101050 10965
L101069 10946
L101050 10928
L101050 10965
" />
<path d="M100788 10571
L100750 10571
L100713 10590
L100694 10609
L100675 10646
L100657 10721
L100657 10815
L100675 10890
L100694 10928
L100713 10946
L100750 10965
L100788 10965
L100825 10946
L100844 10928
L100863 10890
L100882 10815
L100882 10721
L100863 10646
L100844 10609
L100825 10590
L100788 10571
" />
<path d="M100413 10571
L100375 10571
L100338 10590
L100319 10609
L100300 10646
L100282 10721
L100282 10815
L100300 10890
L100319 10928
L100338 10946
L100375 10965
L100413 10965
L100450 10946
L100469 10928
L100488 10890
L100507 10815
L100507 10721
L100488 10646
L100469 10609
L100450 10590
L100413 10571
" />
<path d="M100038 10571
L100000 10571
L99963 10590
L99944 10609
L99925 10646
L99907 10721
L99907 10815
L99925 10890
L99944 10928
L99963 10946
L100000 10965
L100038 10965
L100075 10946
L100094 10928
L100113 10890
L100132 10815
L100132 10721
L100113 10646
L100094 10609
L100075 10590
L100038 10571
" />
<path d="M99438 10965
L99438 10703
" />
<path d="M99438 10740
L99419 10721
L99382 10703
L99325 10703
L99288 10721
L99269 10759
L99269 10965
" />
<path d="M99269 10759
L99250 10721
L99213 10703
L99157 10703
L99119 10721
L99100 10759
L99100 10965
" />
<path d="M98913 10965
L98913 10703
" />
<path d="M98913 10740
L98894 10721
L98857 10703
L98801 10703
L98763 10721
L98744 10759
L98744 10965
" />
<path d="M98744 10759
L98726 10721
L98688 10703
L98632 10703
L98594 10721
L98576 10759
L98576 10965
" />
<path d="M100985 11318
L99016 11318
" />
<path d="M100985 13188
L100985 10255
" />
<path d="M99016 13188
L99016 10255
" />
<path d="M99016 11318
L99460 11549
" />
<path d="M99016 11318
L99460 11088
" />
<path d="M100985 11318
L100541 11549
" />
<path d="M100985 11318
L100541 11088
" />
</g>
<g style="fill:#000000; fill-opacity:0.0; 
stroke:#000000; stroke-width:118.11; stroke-opacity:1; 
stroke-linecap:round; stroke-linejoin:round;">
<path d="M92492 7314
L92773 7314
L92801 7595
L92773 7567
L92717 7539
L92576 7539
L92520 7567
L92492 7595
L92464 7651
L92464 7792
L92492 7848
L92520 7876
L92576 7904
L92717 7904
L92773 7876
L92801 7848
" />
<path d="M91958 7511
L91958 7904
" />
<path d="M92098 7286
L92239 7708
L91873 7708
" />
<path d="M91648 7848
L91620 7876
L91648 7904
L91676 7876
L91648 7848
L91648 7904
" />
<path d="M91255 7314
L91198 7314
L91142 7342
L91114 7370
L91086 7426
L91058 7539
L91058 7679
L91086 7792
L91114 7848
L91142 7876
L91198 7904
L91255 7904
L91311 7876
L91339 7848
L91367 7792
L91395 7679
L91395 7539
L91367 7426
L91339 7370
L91311 7342
L91255 7314
" />
<path d="M90692 7314
L90636 7314
L90580 7342
L90552 7370
L90523 7426
L90495 7539
L90495 7679
L90523 7792
L90552 7848
L90580 7876
L90636 7904
L90692 7904
L90748 7876
L90777 7848
L90805 7792
L90833 7679
L90833 7539
L90805 7426
L90777 7370
L90748 7342
L90692 7314
" />
<path d="M90130 7314
L90073 7314
L90017 7342
L89989 7370
L89961 7426
L89933 7539
L89933 7679
L89961 7792
L89989 7848
L90017 7876
L90073 7904
L90130 7904
L90186 7876
L90214 7848
L90242 7792
L90270 7679
L90270 7539
L90242 7426
L90214 7370
L90186 7342
L90130 7314
" />
<path d="M89230 7904
L89230 7511
" />
<path d="M89230 7567
L89202 7539
L89145 7511
L89061 7511
L89005 7539
L88977 7595
L88977 7904
" />
<path d="M88977 7595
L88949 7539
L88892 7511
L88808 7511
L88752 7539
L88724 7595
L88724 7904
" />
<path d="M88442 7904
L88442 7511
" />
<path d="M88442 7567
L88414 7539
L88358 7511
L88274 7511
L88217 7539
L88189 7595
L88189 7904
" />
<path d="M88189 7595
L88161 7539
L88105 7511
L88021 7511
L87964 7539
L87936 7595
L87936 7904
" />
<path d="M100985 8169
L79725 8169
" />
<path d="M100985 13188
L100985 7106
" />
<path d="M79725 13188
L79725 7106
" />
<path d="M79725 8169
L80168 8400
" />
<path d="M79725 8169
L80168 7938
" />
<path d="M100985 8169
L100541 8400
" />
<path d="M100985 8169
L100541 7938
" />
<path d="M24607 7511
L24607 7904
" />
<path d="M24747 7286
L24888 7708
L24522 7708
" />
<path d="M24044 7511
L24044 7904
" />
<path d="M24185 7286
L24325 7708
L23960 7708
" />
<path d="M23735 7848
L23707 7876
L23735 7904
L23763 7876
L23735 7848
L23735 7904
" />
<path d="M23172 7314
L23454 7314
L23482 7595
L23454 7567
L23397 7539
L23257 7539
L23201 7567
L23172 7595
L23144 7651
L23144 7792
L23172 7848
L23201 7876
L23257 7904
L23397 7904
L23454 7876
L23482 7848
" />
<path d="M22779 7314
L22723 7314
L22666 7342
L22638 7370
L22610 7426
L22582 7539
L22582 7679
L22610 7792
L22638 7848
L22666 7876
L22723 7904
L22779 7904
L22835 7876
L22863 7848
L22891 7792
L22919 7679
L22919 7539
L22891 7426
L22863 7370
L22835 7342
L22779 7314
" />
<path d="M22216 7314
L22160 7314
L22104 7342
L22076 7370
L22048 7426
L22019 7539
L22019 7679
L22048 7792
L22076 7848
L22104 7876
L22160 7904
L22216 7904
L22273 7876
L22301 7848
L22329 7792
L22357 7679
L22357 7539
L22329 7426
L22301 7370
L22273 7342
L22216 7314
" />
<path d="M21316 7904
L21316 7511
" />
<path d="M21316 7567
L21288 7539
L21232 7511
L21148 7511
L21091 7539
L21063 7595
L21063 7904
" />
<path d="M21063 7595
L21035 7539
L20979 7511
L20895 7511
L20838 7539
L20810 7595
L20810 7904
" />
<path d="M20529 7904
L20529 7511
" />
<path d="M20529 7567
L20501 7539
L20445 7511
L20360 7511
L20304 7539
L20276 7595
L20276 7904
" />
<path d="M20276 7595
L20248 7539
L20192 7511
L20107 7511
L20051 7539
L20023 7595
L20023 7904
" />
<path d="M31201 8169
L13681 8169
" />
<path d="M31201 13287
L31201 7106
" />
<path d="M13681 13287
L13681 7106
" />
<path d="M13681 8169
L14125 8400
" />
<path d="M13681 8169
L14125 7938
" />
<path d="M31201 8169
L30758 8400
" />
<path d="M31201 8169
L30758 7938
" />
<path d="M27787 14651
L27787 15016
L28012 14820
L28012 14904
L28040 14960
L28068 14988
L28125 15016
L28265 15016
L28322 14988
L28350 14960
L28378 14904
L28378 14735
L28350 14679
L28322 14651
" />
<path d="M27787 15382
L27787 15438
L27815 15494
L27843 15523
L27900 15551
L28012 15579
L28153 15579
L28265 15551
L28322 15523
L28350 15494
L28378 15438
L28378 15382
L28350 15326
L28322 15298
L28265 15269
L28153 15241
L28012 15241
L27900 15269
L27843 15298
L27815 15326
L27787 15382
" />
<path d="M28322 15832
L28350 15860
L28378 15832
L28350 15804
L28322 15832
L28378 15832
" />
<path d="M27787 16226
L27787 16282
L27815 16338
L27843 16366
L27900 16394
L28012 16422
L28153 16422
L28265 16394
L28322 16366
L28350 16338
L28378 16282
L28378 16226
L28350 16169
L28322 16141
L28265 16113
L28153 16085
L28012 16085
L27900 16113
L27843 16141
L27815 16169
L27787 16226
" />
<path d="M27787 16788
L27787 16844
L27815 16901
L27843 16929
L27900 16957
L28012 16985
L28153 16985
L28265 16957
L28322 16929
L28350 16901
L28378 16844
L28378 16788
L28350 16732
L28322 16704
L28265 16676
L28153 16647
L28012 16647
L27900 16676
L27843 16704
L27815 16732
L27787 16788
" />
<path d="M27787 17350
L27787 17407
L27815 17463
L27843 17491
L27900 17519
L28012 17547
L28153 17547
L28265 17519
L28322 17491
L28350 17463
L28378 17407
L28378 17350
L28350 17294
L28322 17266
L28265 17238
L28153 17210
L28012 17210
L27900 17238
L27843 17266
L27815 17294
L27787 17350
" />
<path d="M28378 18250
L27984 18250
" />
<path d="M28040 18250
L28012 18278
L27984 18335
L27984 18419
L28012 18475
L28068 18503
L28378 18503
" />
<path d="M28068 18503
L28012 18532
L27984 18588
L27984 18672
L28012 18728
L28068 18757
L28378 18757
" />
<path d="M28378 19038
L27984 19038
" />
<path d="M28040 19038
L28012 19066
L27984 19122
L27984 19206
L28012 19263
L28068 19291
L28378 19291
" />
<path d="M28068 19291
L28012 19319
L27984 19375
L27984 19460
L28012 19516
L28068 19544
L28378 19544
" />
<path d="M28642 11220
L28642 23031
" />
<path d="M34843 11220
L27579 11220
" />
<path d="M34843 23031
L27579 23031
" />
<path d="M28642 23031
L28873 22587
" />
<path d="M28642 23031
L28411 22587
" />
<path d="M28642 11220
L28873 11663
" />
<path d="M28642 11220
L28411 11663
" />
<path d="M32886 16718
L32886 17083
L33111 16886
L33111 16971
L33139 17027
L33167 17055
L33223 17083
L33364 17083
L33420 17055
L33448 17027
L33476 16971
L33476 16802
L33448 16746
L33420 16718
" />
<path d="M32886 17449
L32886 17505
L32914 17561
L32942 17589
L32998 17618
L33111 17646
L33251 17646
L33364 17618
L33420 17589
L33448 17561
L33476 17505
L33476 17449
L33448 17393
L33420 17365
L33364 17336
L33251 17308
L33111 17308
L32998 17336
L32942 17365
L32914 17393
L32886 17449
" />
<path d="M33420 17899
L33448 17927
L33476 17899
L33448 17871
L33420 17899
L33476 17899
" />
<path d="M32886 18293
L32886 18349
L32914 18405
L32942 18433
L32998 18461
L33111 18489
L33251 18489
L33364 18461
L33420 18433
L33448 18405
L33476 18349
L33476 18293
L33448 18236
L33420 18208
L33364 18180
L33251 18152
L33111 18152
L32998 18180
L32942 18208
L32914 18236
L32886 18293
" />
<path d="M32886 18855
L32886 18911
L32914 18967
L32942 18996
L32998 19024
L33111 19052
L33251 19052
L33364 19024
L33420 18996
L33448 18967
L33476 18911
L33476 18855
L33448 18799
L33420 18771
L33364 18742
L33251 18714
L33111 18714
L32998 18742
L32942 18771
L32914 18799
L32886 18855
" />
<path d="M32886 19417
L32886 19474
L32914 19530
L32942 19558
L32998 19586
L33111 19614
L33251 19614
L33364 19586
L33420 19558
L33448 19530
L33476 19474
L33476 19417
L33448 19361
L33420 19333
L33364 19305
L33251 19277
L33111 19277
L32998 19305
L32942 19333
L32914 19361
L32886 19417
" />
<path d="M33476 20317
L33082 20317
" />
<path d="M33139 20317
L33111 20345
L33082 20402
L33082 20486
L33111 20542
L33167 20570
L33476 20570
" />
<path d="M33167 20570
L33111 20598
L33082 20655
L33082 20739
L33111 20795
L33167 20823
L33476 20823
" />
<path d="M33476 21105
L33082 21105
" />
<path d="M33139 21105
L33111 21133
L33082 21189
L33082 21273
L33111 21330
L33167 21358
L33476 21358
" />
<path d="M33167 21358
L33111 21386
L33082 21442
L33082 21526
L33111 21583
L33167 21611
L33476 21611
" />
<path d="M32678 13287
L32678 25098
" />
<path d="M27264 13287
L33741 13287
" />
<path d="M27264 25098
L33741 25098
" />
<path d="M32678 25098
L32908 24654
" />
<path d="M32678 25098
L32447 24654
" />
<path d="M32678 13287
L32908 13730
" />
<path d="M32678 13287
L32447 13730
" />
<path d="M17759 10562
L18097 10562
" />
<path d="M17928 10562
L17928 9971
L17984 10056
L18040 10112
L18097 10140
" />
<path d="M17394 9971
L17337 9971
L17281 10000
L17253 10028
L17225 10084
L17197 10196
L17197 10337
L17225 10449
L17253 10506
L17281 10534
L17337 10562
L17394 10562
L17450 10534
L17478 10506
L17506 10449
L17534 10337
L17534 10196
L17506 10084
L17478 10028
L17450 10000
L17394 9971
" />
<path d="M16944 10506
L16915 10534
L16944 10562
L16972 10534
L16944 10506
L16944 10562
" />
<path d="M16550 9971
L16494 9971
L16437 10000
L16409 10028
L16381 10084
L16353 10196
L16353 10337
L16381 10449
L16409 10506
L16437 10534
L16494 10562
L16550 10562
L16606 10534
L16634 10506
L16662 10449
L16690 10337
L16690 10196
L16662 10084
L16634 10028
L16606 10000
L16550 9971
" />
<path d="M15987 9971
L15931 9971
L15875 10000
L15847 10028
L15819 10084
L15791 10196
L15791 10337
L15819 10449
L15847 10506
L15875 10534
L15931 10562
L15987 10562
L16044 10534
L16072 10506
L16100 10449
L16128 10337
L16128 10196
L16100 10084
L16072 10028
L16044 10000
L15987 9971
" />
<path d="M15425 9971
L15369 9971
L15313 10000
L15284 10028
L15256 10084
L15228 10196
L15228 10337
L15256 10449
L15284 10506
L15313 10534
L15369 10562
L15425 10562
L15481 10534
L15509 10506
L15537 10449
L15566 10337
L15566 10196
L15537 10084
L15509 10028
L15481 10000
L15425 9971
" />
<path d="M14525 10562
L14525 10168
" />
<path d="M14525 10224
L14497 10196
L14441 10168
L14356 10168
L14300 10196
L14272 10253
L14272 10562
" />
<path d="M14272 10253
L14244 10196
L14188 10168
L14103 10168
L14047 10196
L14019 10253
L14019 10562
" />
<path d="M13738 10562
L13738 10168
" />
<path d="M13738 10224
L13710 10196
L13653 10168
L13569 10168
L13513 10196
L13485 10253
L13485 10562
" />
<path d="M13485 10253
L13456 10196
L13400 10168
L13316 10168
L13260 10196
L13232 10253
L13232 10562
" />
<path d="M17618 10826
L13681 10826
" />
<path d="M17618 18307
L17618 9763
" />
<path d="M13681 18307
L13681 9763
" />
<path d="M13681 10826
L14125 11057
" />
<path d="M13681 10826
L14125 10595
" />
<path d="M17618 10826
L17175 11057
" />
<path d="M17618 10826
L17175 10595
" />
<path d="M31342 10562
L31679 10562
" />
<path d="M31510 10562
L31510 9971
L31567 10056
L31623 10112
L31679 10140
" />
<path d="M30976 9971
L30920 9971
L30864 10000
L30836 10028
L30807 10084
L30779 10196
L30779 10337
L30807 10449
L30836 10506
L30864 10534
L30920 10562
L30976 10562
L31032 10534
L31061 10506
L31089 10449
L31117 10337
L31117 10196
L31089 10084
L31061 10028
L31032 10000
L30976 9971
" />
<path d="M30526 10506
L30498 10534
L30526 10562
L30554 10534
L30526 10506
L30526 10562
" />
<path d="M30133 9971
L30076 9971
L30020 10000
L29992 10028
L29964 10084
L29936 10196
L29936 10337
L29964 10449
L29992 10506
L30020 10534
L30076 10562
L30133 10562
L30189 10534
L30217 10506
L30245 10449
L30273 10337
L30273 10196
L30245 10084
L30217 10028
L30189 10000
L30133 9971
" />
<path d="M29570 9971
L29514 9971
L29458 10000
L29430 10028
L29401 10084
L29373 10196
L29373 10337
L29401 10449
L29430 10506
L29458 10534
L29514 10562
L29570 10562
L29626 10534
L29654 10506
L29683 10449
L29711 10337
L29711 10196
L29683 10084
L29654 10028
L29626 10000
L29570 9971
" />
<path d="M29008 9971
L28951 9971
L28895 10000
L28867 10028
L28839 10084
L28811 10196
L28811 10337
L28839 10449
L28867 10506
L28895 10534
L28951 10562
L29008 10562
L29064 10534
L29092 10506
L29120 10449
L29148 10337
L29148 10196
L29120 10084
L29092 10028
L29064 10000
L29008 9971
" />
<path d="M28108 10562
L28108 10168
" />
<path d="M28108 10224
L28080 10196
L28023 10168
L27939 10168
L27883 10196
L27855 10253
L27855 10562
" />
<path d="M27855 10253
L27827 10196
L27770 10168
L27686 10168
L27630 10196
L27602 10253
L27602 10562
" />
<path d="M27320 10562
L27320 10168
" />
<path d="M27320 10224
L27292 10196
L27236 10168
L27152 10168
L27095 10196
L27067 10253
L27067 10562
" />
<path d="M27067 10253
L27039 10196
L26983 10168
L26899 10168
L26842 10196
L26814 10253
L26814 10562
" />
<path d="M27264 10826
L31201 10826
" />
<path d="M27264 18307
L27264 9763
" />
<path d="M31201 18307
L31201 9763
" />
<path d="M31201 10826
L30758 10595
" />
<path d="M31201 10826
L30758 11057
" />
<path d="M27264 10826
L27708 10595
" />
<path d="M27264 10826
L27708 11057
" />
</g>
<g style="fill:#000000; fill-opacity:0.0; 
stroke:#000000; stroke-width:59.0551; stroke-opacity:1; 
stroke-linecap:round; stroke-linejoin:round;">
<path d="M93996 18602
L93996 14665
" />
<path d="M78248 18602
L93996 18602
" />
<path d="M78248 14665
L78248 18602
" />
<path d="M93996 14665
L78248 14665
" />
<path d="M80118 22047
L77363 22047
" />
<path d="M80118 25984
L80118 22047
" />
<path d="M91930 25984
L80118 25984
" />
<path d="M91930 22047
L91930 25984
" />
<path d="M94685 22047
L91930 22047
" />
<circle cx="82973.3" cy="51378" r="656.168" /> 
<path d="M83957 51377
L81989 51377
" />
<path d="M82973 50393
L82973 52362
" />
<circle cx="89075.7" cy="51378" r="656.168" /> 
<path d="M90059 51377
L88091 51377
" />
<path d="M89075 50393
L89075 52362
" />
<circle cx="76378.8" cy="23031.5" r="656.168" /> 
<path d="M77363 23031
L75394 23031
" />
<path d="M76378 22047
L76378 24015
" />
<circle cx="95670.2" cy="23031.5" r="656.168" /> 
<path d="M96654 23031
L94685 23031
" />
<path d="M95670 22047
L95670 24015
" />
<path d="M80906 53937
L75394 53937
" />
<path d="M80906 49212
L80906 53937
" />
<path d="M91142 49212
L80906 49212
" />
<path d="M91142 53937
L91142 49212
" />
<path d="M96654 53937
L91142 53937
" />
<path d="M96654 24015
L96654 53937
" />
<path d="M94685 24015
L96654 24015
" />
<path d="M94685 22047
L94685 24015
" />
<path d="M75394 24015
L75394 53937
" />
<path d="M77363 24015
L75394 24015
" />
<path d="M77363 22047
L77363 24015
" />
</g> 
</svg>
